<svg width="90" height="32" viewBox="0 0 90 32" fill="none" xmlns="http://www.w3.org/2000/svg">
<g clip-path="url(#clip0_180_57201)">
<path d="M5.12253 9.07396C5.12253 10.7473 5.53626 12.0672 6.36722 13.0317C7.0667 13.8366 7.87137 14.2382 8.78123 14.2382C10.1784 14.2382 11.2601 13.7388 12.0262 12.7417C12.6924 11.8732 13.0255 10.7628 13.0255 9.41207C13.0255 8.06136 12.6748 6.84623 11.9771 5.96064C11.2461 5.01153 10.2293 4.53612 8.92849 4.53612C7.88715 4.53612 7.00885 4.93087 6.29359 5.71864C5.51347 6.57163 5.12253 7.68893 5.12253 9.07396ZM9.2195 18.7263C6.53727 18.7263 4.33013 17.8699 2.59808 16.1553C0.866026 14.4425 0 12.2594 0 9.60429C0 6.94921 0.764347 4.77812 2.29304 2.99147C3.07317 2.09043 4.02509 1.37474 5.14707 0.844409C6.34969 0.28147 7.61016 0 8.92673 0C11.4635 0 13.6425 0.85299 15.464 2.55897C16.2932 3.3313 16.9559 4.32502 17.452 5.53843C17.9481 6.75356 18.1971 8.01159 18.1971 9.31596C18.1971 10.3131 18.0516 11.312 17.757 12.3091C17.4643 13.3063 17.3188 13.8538 17.3188 13.9499C17.3188 14.4648 17.3994 14.8595 17.5625 15.1324C17.5782 15.165 17.8219 15.4774 18.2935 16.0729C18.716 16.6033 18.9281 17.0375 18.9281 17.3756C18.9281 17.9231 18.7248 18.3899 18.318 18.7744C17.9113 19.1605 17.3836 19.3545 16.7332 19.3545C16.181 19.3545 15.5306 19.1897 14.7821 18.8602C14.0335 18.5307 13.3831 18.3659 12.8309 18.3659C12.2786 18.3659 11.6843 18.426 11.0988 18.5461C10.5133 18.668 9.88743 18.728 9.22125 18.728" fill="#1F2346"/>
<path d="M32.7319 0.104741C30.6843 0.104741 30.0918 1.46747 30.0918 3.67975V11.2056C30.0918 13.7457 27.6094 13.8041 27.6094 13.8041C27.6094 13.8041 25.127 13.7457 25.127 11.2056V3.67975C25.127 1.46747 24.5345 0.104741 22.4869 0.104741C22.4869 0.104741 19.6732 0.0807138 19.6732 3.70721V12.8533C19.6732 14.4803 21.1177 18.7761 27.6094 18.7761C34.1011 18.7761 35.5456 14.4803 35.5456 12.8533V3.70721C35.5456 0.0789975 32.7319 0.104741 32.7319 0.104741Z" fill="#1F2346"/>
<path d="M42.537 10.3595C42.537 9.97334 42.537 9.76223 42.537 9.76223C42.537 8.10774 42.537 5.56078 42.537 3.53214C42.537 0.242038 40.7137 0.104736 39.9739 0.104736C39.9739 0.104736 37.0831 0.108169 37.0831 3.78787V15.093C37.0831 18.7727 39.9739 18.7761 39.9739 18.7761C40.712 18.7761 42.537 18.6388 42.537 15.3487C42.537 13.7869 42.537 12.4499 42.537 11.4751C42.537 11.4751 42.537 11.046 42.537 10.3595Z" fill="#1F2346"/>
<path d="M73.1126 9.4241C74.3591 7.77132 75.7072 5.97781 76.5732 4.82104C78.5525 2.17626 77.1693 0.993743 76.575 0.557808C76.575 0.557808 74.2504 -1.14131 72.0362 1.81584C70.6706 3.64196 68.5739 6.42061 67.1696 8.28277C67.1696 6.79133 67.1696 5.02185 67.1696 3.5304C67.1696 0.240297 65.3464 0.102995 64.6066 0.102995C64.6066 0.102995 61.7158 0.106427 61.7158 3.78613V15.093C61.7158 18.7727 64.6066 18.7761 64.6066 18.7761C65.0221 18.7761 65.7812 18.7332 66.3667 18.1085C66.7138 17.8373 67.082 17.4614 67.4659 16.9483C68.3512 15.764 69.1173 14.7411 69.6941 13.9705C70.4953 15.002 71.3262 16.0833 72.038 17.0324C74.2504 19.9895 76.5767 18.2904 76.5767 18.2904C77.171 17.8562 78.5542 16.6719 76.575 14.0272C75.7107 12.8721 74.3608 11.0786 73.1144 9.4241" fill="#1F2346"/>
<path d="M59.0791 11.7993C56.6809 10.7095 55.7781 12.642 55.7781 12.642C55.7781 12.642 55.1049 13.6992 53.6638 14.0081C52.2228 14.3171 50.6906 13.9343 49.6457 12.2867C49.2338 11.638 49.0409 10.9326 48.9568 10.3181H48.9585C48.9585 10.3181 48.9515 10.277 48.9428 10.2049C48.9112 9.93885 48.9007 9.6917 48.9007 9.47717C48.9007 9.26092 48.913 9.01549 48.9428 8.74946C48.9515 8.67738 48.9585 8.63619 48.9585 8.63619H48.9568C49.0409 8.02176 49.2338 7.31637 49.6457 6.66762C50.6906 5.01999 52.2245 4.63555 53.6638 4.94448C55.1049 5.25341 55.7781 6.31063 55.7781 6.31063C55.7781 6.31063 56.6809 8.24316 59.0791 7.15333C61.4773 6.06349 60.0293 3.55772 59.4771 3.03426C58.9248 2.50908 56.758 0.200684 52.6576 0.200684C48.5571 0.200684 46.2062 3.03941 45.7574 3.69846C45.4278 4.18245 44.532 5.27915 44.0779 7.47599C44.0499 7.62359 43.9903 7.94796 43.9359 8.31868C43.9219 8.42337 43.9061 8.52807 43.8939 8.63791C43.857 8.93826 43.8272 9.24032 43.8272 9.4806C43.8272 9.72088 43.8553 10.0229 43.8921 10.3216H43.8939C43.9061 10.4366 43.9219 10.543 43.9377 10.6528C43.9903 11.0081 44.0464 11.3204 44.0762 11.4715C44.5285 13.6769 45.4261 14.7736 45.7574 15.2593C46.2062 15.9184 48.5571 18.7571 52.6576 18.7571C56.758 18.7571 58.9248 16.4487 59.4771 15.9235C60.0293 15.3983 61.4756 12.8943 59.0791 11.8044" fill="#1F2346"/>
<path d="M88.3943 11.1215L88.2856 11.2004C87.1286 12.0878 85.244 11.6364 84.3429 10.4865L83.5049 9.42065L79.4746 14.5386C78.5735 15.6885 78.7804 17.3396 79.9391 18.2252C81.0962 19.1125 82.7669 18.8997 83.668 17.7498L88.233 11.8732C88.5941 11.4133 88.8939 10.8074 89.0429 10.1844C88.9307 10.5482 88.7239 10.8726 88.3943 11.1198" fill="#93D500"/>
<path d="M88.2856 7.64423L88.3943 7.72318C88.7239 7.97032 88.9325 8.2947 89.0429 8.65683C88.8939 8.03554 88.5941 7.42969 88.233 6.96973L83.668 1.09148C82.7669 -0.0584285 81.0979 -0.271247 79.9391 0.616069C78.7821 1.50338 78.5735 3.15444 79.4746 4.30263L83.5049 9.42229L84.3429 8.3582C85.244 7.20829 87.1268 6.75863 88.2856 7.64423Z" fill="#E81F76"/>
<path d="M89.1429 9.42238V9.41036C89.1376 9.16322 89.1025 8.90921 89.0412 8.65692C88.9307 8.29307 88.7239 7.96869 88.3925 7.72155L88.2838 7.6426C87.1268 6.75528 85.2422 7.20666 84.3412 8.35485L83.5032 9.42066L84.3412 10.4865C85.2422 11.6364 87.1251 12.086 88.2838 11.1987L88.3925 11.1198C88.7221 10.8726 88.9307 10.5483 89.0412 10.1844C89.1008 9.93383 89.1376 9.67982 89.1429 9.43096V9.41895" fill="#1F2346"/>
<path d="M29.4747 23.3275C29.4747 22.339 30.0006 22.0283 30.8018 22.0283H35.7911C36.4538 22.0283 36.9376 22.2171 36.9376 22.9208C36.9376 23.6245 36.4538 23.8132 35.7911 23.8132H31.7414V26.0856H35.1687C35.763 26.0856 36.2329 26.2486 36.2329 26.9386C36.2329 27.6285 35.763 27.7916 35.1687 27.7916H31.7414V30.8363C31.7414 31.4987 31.2997 31.945 30.609 31.945C29.9182 31.945 29.4747 31.4987 29.4747 30.8363V23.3275Z" fill="#1F2346"/>
<path d="M38.5855 21.7983C39.1658 21.7983 39.6356 22.2583 39.6356 22.8264C39.6356 23.3945 39.1658 23.8544 38.5855 23.8544C38.0052 23.8544 37.5354 23.3945 37.5354 22.8264C37.5354 22.2583 38.0052 21.7983 38.5855 21.7983ZM37.5757 25.5055C37.5757 24.9786 37.7966 24.5169 38.5855 24.5169C39.3744 24.5169 39.5953 24.9769 39.5953 25.5055V30.9581C39.5953 31.485 39.3744 31.945 38.5855 31.945C37.7966 31.945 37.5757 31.485 37.5757 30.9581V25.5055Z" fill="#1F2346"/>
<path d="M41.0538 23.1508C41.0538 22.2309 41.5097 21.8516 42.4774 21.8516C42.9472 21.8516 43.3627 22.0283 43.6099 22.4334L47.5771 28.6978H47.6051V22.9208C47.6051 22.2034 48.0206 21.8516 48.6973 21.8516C49.374 21.8516 49.7895 22.2034 49.7895 22.9208V30.5651C49.7895 31.4438 49.4021 31.945 48.4484 31.945C47.7296 31.945 47.4947 31.7957 47.2037 31.3494L43.2645 25.2618H43.2364V30.8775C43.2364 31.5949 42.8227 31.9467 42.1443 31.9467C41.4658 31.9467 41.0521 31.5949 41.0521 30.8775V23.1525L41.0538 23.1508Z" fill="#1F2346"/>
<path d="M53.648 22.5295C53.8409 22.0283 54.2003 21.8533 54.7542 21.8533H55.2924C55.8043 21.8533 56.2601 21.9751 56.5091 22.6651L59.2457 30.1206C59.3281 30.3368 59.4666 30.7299 59.4666 30.9736C59.4666 31.5142 58.9827 31.9484 58.4024 31.9484C57.9046 31.9484 57.5452 31.7734 57.3804 31.3391L56.8001 29.7155H53.1519L52.5576 31.3391C52.4051 31.7716 52.0878 31.9484 51.5478 31.9484C50.9255 31.9484 50.4977 31.5691 50.4977 30.9736C50.4977 30.7299 50.6362 30.3385 50.7186 30.1206L53.648 22.5295ZM55.0155 24.2612H54.9874L53.6463 28.1709H56.3005L55.0155 24.2612Z" fill="#1F2346"/>
<path d="M60.1748 23.1508C60.1748 22.2309 60.6306 21.8516 61.5983 21.8516C62.0681 21.8516 62.4836 22.0283 62.7308 22.4334L66.698 28.6978H66.7261V22.9208C66.7261 22.2034 67.1416 21.8516 67.8183 21.8516C68.495 21.8516 68.9104 22.2034 68.9104 22.9208V30.5651C68.9104 31.4438 68.523 31.945 67.5693 31.945C66.8506 31.945 66.6157 31.7957 66.3264 31.3494L62.3872 25.2618H62.3592V30.8775C62.3592 31.5949 61.9454 31.9467 61.267 31.9467C60.5885 31.9467 60.1748 31.5949 60.1748 30.8775V23.1525V23.1508Z" fill="#1F2346"/>
<path d="M75.8019 26.1285C77.874 26.5885 78.4 27.7933 78.4 28.9295C78.4 30.6886 77.0448 32.0016 74.3082 32.0016C71.4332 32.0016 70.1482 30.5942 70.1482 29.5387C70.1482 28.9981 70.5496 28.6188 71.1018 28.6188C72.3325 28.6188 72.0134 30.378 74.3082 30.378C75.4828 30.378 76.1332 29.743 76.1332 29.0925C76.1332 28.6995 75.9404 28.267 75.1655 28.0782L72.6077 27.4432C70.5479 26.9283 70.1745 25.8196 70.1745 24.7778C70.1745 22.6136 72.2203 21.8018 74.1417 21.8018C75.9106 21.8018 77.9985 22.7766 77.9985 24.0741C77.9985 24.6285 77.5146 24.9528 76.9624 24.9528C75.9123 24.9528 76.1052 23.5043 73.9909 23.5043C72.9408 23.5043 72.3606 23.978 72.3606 24.6542C72.3606 25.3304 73.1898 25.5467 73.9085 25.7097L75.8019 26.1285Z" fill="#1F2346"/>
</g>
<defs>
<clipPath id="clip0_180_57201">
<rect width="89.1429" height="32" fill="white"/>
</clipPath>
</defs>
</svg>
